<?xml version="1.0" encoding="utf-8" standalone="no"?>
<!DOCTYPE svg PUBLIC "-//W3C//DTD SVG 1.1//EN"
  "http://www.w3.org/Graphics/SVG/1.1/DTD/svg11.dtd">
<svg xmlns:xlink="http://www.w3.org/1999/xlink" width="705.6pt" height="403.2pt" viewBox="0 0 705.6 403.2" xmlns="http://www.w3.org/2000/svg" version="1.1">
 <metadata>
  <rdf:RDF xmlns:dc="http://purl.org/dc/elements/1.1/" xmlns:cc="http://creativecommons.org/ns#" xmlns:rdf="http://www.w3.org/1999/02/22-rdf-syntax-ns#">
   <cc:Work>
    <dc:type rdf:resource="http://purl.org/dc/dcmitype/StillImage"/>
    <dc:date>2026-02-19T10:23:50.603021</dc:date>
    <dc:format>image/svg+xml</dc:format>
    <dc:creator>
     <cc:Agent>
      <dc:title>Matplotlib v3.9.2, https://matplotlib.org/</dc:title>
     </cc:Agent>
    </dc:creator>
   </cc:Work>
  </rdf:RDF>
 </metadata>
 <defs>
  <style type="text/css">*{stroke-linejoin: round; stroke-linecap: butt}</style>
 </defs>
 <g id="figure_1">
  <g id="patch_1">
   <path d="M 0 403.2 
L 705.6 403.2 
L 705.6 0 
L 0 0 
z
" style="fill: #ffffff"/>
  </g>
  <g id="axes_1">
   <g id="patch_2">
    <path d="M 120.26 356.1 
L 692.64 356.1 
L 692.64 29.52 
L 120.26 29.52 
z
" style="fill: #ffffff"/>
   </g>
   <g id="matplotlib.axis_1">
    <g id="xtick_1">
     <g id="line2d_1">
      <path d="M 126.967493 356.1 
L 126.967493 29.52 
" clip-path="url(#p32d1279b5d)" style="fill: none; stroke: #cccccc; stroke-linecap: round"/>
     </g>
     <g id="text_1">
      <!-- 10.0 -->
      <g style="fill: #262626" transform="translate(117.333899 373.159375) scale(0.1 -0.1)">
       <defs>
        <path id="Georgia-31" d="M 2528 0 
L 422 0 
L 422 222 
Q 516 228 714 248 
Q 913 269 988 291 
Q 1084 322 1136 392 
Q 1188 463 1188 603 
L 1188 2797 
L 409 2797 
L 409 3059 
L 581 3059 
Q 919 3059 1186 3184 
Q 1453 3309 1569 3453 
L 1828 3453 
Q 1819 3250 1809 2978 
Q 1800 2706 1800 2491 
L 1800 638 
Q 1800 528 1848 442 
Q 1897 356 1988 316 
Q 2069 281 2253 253 
Q 2438 225 2528 222 
L 2528 0 
z
" transform="scale(0.015625)"/>
        <path id="Georgia-30" d="M 3209 2919 
Q 3409 2678 3507 2354 
Q 3606 2031 3606 1678 
Q 3606 1253 3484 917 
Q 3363 581 3150 359 
Q 2931 131 2631 15 
Q 2331 -100 1963 -100 
Q 1559 -100 1243 34 
Q 928 169 731 403 
Q 525 647 423 973 
Q 322 1300 322 1678 
Q 322 2050 420 2362 
Q 519 2675 728 2928 
Q 928 3172 1243 3312 
Q 1559 3453 1966 3453 
Q 2394 3453 2700 3309 
Q 3006 3166 3209 2919 
z
M 2916 1678 
Q 2916 2422 2661 2831 
Q 2406 3241 1969 3241 
Q 1525 3241 1269 2831 
Q 1013 2422 1013 1678 
Q 1013 972 1258 542 
Q 1503 113 1963 113 
Q 2422 113 2669 542 
Q 2916 972 2916 1678 
z
" transform="scale(0.015625)"/>
        <path id="Georgia-2e" d="M 1297 359 
Q 1297 184 1170 60 
Q 1044 -63 869 -63 
Q 694 -63 567 60 
Q 441 184 441 359 
Q 441 534 567 661 
Q 694 788 869 788 
Q 1044 788 1170 661 
Q 1297 534 1297 359 
z
" transform="scale(0.015625)"/>
       </defs>
       <use xlink:href="#Georgia-31"/>
       <use xlink:href="#Georgia-30" x="42.96875"/>
       <use xlink:href="#Georgia-2e" x="104.345703"/>
       <use xlink:href="#Georgia-30" x="131.298828"/>
      </g>
     </g>
    </g>
    <g id="xtick_2">
     <g id="line2d_2">
      <path d="M 200.780685 356.1 
L 200.780685 29.52 
" clip-path="url(#p32d1279b5d)" style="fill: none; stroke: #cccccc; stroke-linecap: round"/>
     </g>
     <g id="text_2">
      <!-- 12.5 -->
      <g style="fill: #262626" transform="translate(191.850216 373.159375) scale(0.1 -0.1)">
       <defs>
        <path id="Georgia-32" d="M 3272 0 
L 344 0 
L 344 425 
Q 428 522 578 642 
Q 728 763 934 903 
Q 1059 988 1234 1088 
Q 1409 1188 1631 1306 
Q 1878 1438 2011 1538 
Q 2144 1638 2253 1784 
Q 2325 1881 2369 2026 
Q 2413 2172 2413 2441 
Q 2413 2831 2203 3014 
Q 1994 3197 1666 3197 
Q 1463 3197 1281 3117 
Q 1100 3038 1009 2897 
Q 1031 2797 1064 2659 
Q 1097 2522 1097 2391 
Q 1097 2272 998 2180 
Q 900 2088 706 2088 
Q 550 2088 465 2195 
Q 381 2303 381 2484 
Q 381 2653 475 2823 
Q 569 2994 744 3138 
Q 916 3278 1169 3365 
Q 1422 3453 1716 3453 
Q 2356 3453 2732 3167 
Q 3109 2881 3109 2403 
Q 3109 2175 3042 1987 
Q 2975 1800 2825 1656 
Q 2659 1497 2437 1383 
Q 2216 1269 1759 1066 
Q 1488 944 1253 811 
Q 1019 678 869 553 
L 3272 553 
L 3272 0 
z
" transform="scale(0.015625)"/>
        <path id="Georgia-35" d="M 2634 1466 
Q 2841 1303 2977 1047 
Q 3113 791 3113 406 
Q 3113 -266 2653 -703 
Q 2194 -1141 1488 -1141 
Q 941 -1141 562 -881 
Q 184 -622 184 -278 
Q 184 -119 262 0 
Q 341 119 503 119 
Q 691 119 789 20 
Q 888 -78 888 -194 
Q 888 -294 853 -444 
Q 819 -594 800 -666 
Q 825 -688 881 -725 
Q 938 -763 1016 -797 
Q 1097 -831 1214 -857 
Q 1331 -884 1488 -884 
Q 1688 -884 1866 -803 
Q 2044 -722 2166 -563 
Q 2300 -388 2367 -164 
Q 2434 59 2434 403 
Q 2434 844 2189 1133 
Q 1944 1422 1544 1422 
Q 1294 1422 1076 1328 
Q 859 1234 688 1016 
L 478 1097 
L 744 3353 
L 2981 3353 
L 2981 2797 
L 997 2797 
L 834 1472 
Q 975 1572 1204 1670 
Q 1434 1769 1709 1769 
Q 1938 1769 2183 1698 
Q 2428 1628 2634 1466 
z
" transform="scale(0.015625)"/>
       </defs>
       <use xlink:href="#Georgia-31"/>
       <use xlink:href="#Georgia-32" x="42.96875"/>
       <use xlink:href="#Georgia-2e" x="98.828125"/>
       <use xlink:href="#Georgia-35" x="125.78125"/>
      </g>
     </g>
    </g>
    <g id="xtick_3">
     <g id="line2d_3">
      <path d="M 274.593877 356.1 
L 274.593877 29.52 
" clip-path="url(#p32d1279b5d)" style="fill: none; stroke: #cccccc; stroke-linecap: round"/>
     </g>
     <g id="text_3">
      <!-- 15.0 -->
      <g style="fill: #262626" transform="translate(265.387627 373.159375) scale(0.1 -0.1)">
       <use xlink:href="#Georgia-31"/>
       <use xlink:href="#Georgia-35" x="42.96875"/>
       <use xlink:href="#Georgia-2e" x="95.800781"/>
       <use xlink:href="#Georgia-30" x="122.753906"/>
      </g>
     </g>
    </g>
    <g id="xtick_4">
     <g id="line2d_4">
      <path d="M 348.407069 356.1 
L 348.407069 29.52 
" clip-path="url(#p32d1279b5d)" style="fill: none; stroke: #cccccc; stroke-linecap: round"/>
     </g>
     <g id="text_4">
      <!-- 17.5 -->
      <g style="fill: #262626" transform="translate(339.757069 373.159375) scale(0.1 -0.1)">
       <defs>
        <path id="Georgia-37" d="M 3216 3150 
L 988 -1141 
L 597 -1141 
L 2694 2828 
L 1466 2828 
Q 1194 2828 1041 2822 
Q 888 2816 759 2763 
Q 663 2722 586 2555 
Q 509 2388 469 2128 
L 278 2128 
L 278 3353 
L 3216 3353 
L 3216 3150 
z
" transform="scale(0.015625)"/>
       </defs>
       <use xlink:href="#Georgia-31"/>
       <use xlink:href="#Georgia-37" x="42.96875"/>
       <use xlink:href="#Georgia-2e" x="93.212891"/>
       <use xlink:href="#Georgia-35" x="120.166016"/>
      </g>
     </g>
    </g>
    <g id="xtick_5">
     <g id="line2d_5">
      <path d="M 422.220261 356.1 
L 422.220261 29.52 
" clip-path="url(#p32d1279b5d)" style="fill: none; stroke: #cccccc; stroke-linecap: round"/>
     </g>
     <g id="text_5">
      <!-- 20.0 -->
      <g style="fill: #262626" transform="translate(411.942136 373.159375) scale(0.1 -0.1)">
       <use xlink:href="#Georgia-32"/>
       <use xlink:href="#Georgia-30" x="55.859375"/>
       <use xlink:href="#Georgia-2e" x="117.236328"/>
       <use xlink:href="#Georgia-30" x="144.189453"/>
      </g>
     </g>
    </g>
    <g id="xtick_6">
     <g id="line2d_6">
      <path d="M 496.033453 356.1 
L 496.033453 29.52 
" clip-path="url(#p32d1279b5d)" style="fill: none; stroke: #cccccc; stroke-linecap: round"/>
     </g>
     <g id="text_6">
      <!-- 22.5 -->
      <g style="fill: #262626" transform="translate(486.458453 373.159375) scale(0.1 -0.1)">
       <use xlink:href="#Georgia-32"/>
       <use xlink:href="#Georgia-32" x="55.859375"/>
       <use xlink:href="#Georgia-2e" x="111.71875"/>
       <use xlink:href="#Georgia-35" x="138.671875"/>
      </g>
     </g>
    </g>
    <g id="xtick_7">
     <g id="line2d_7">
      <path d="M 569.846645 356.1 
L 569.846645 29.52 
" clip-path="url(#p32d1279b5d)" style="fill: none; stroke: #cccccc; stroke-linecap: round"/>
     </g>
     <g id="text_7">
      <!-- 25.0 -->
      <g style="fill: #262626" transform="translate(559.995863 373.159375) scale(0.1 -0.1)">
       <use xlink:href="#Georgia-32"/>
       <use xlink:href="#Georgia-35" x="55.859375"/>
       <use xlink:href="#Georgia-2e" x="108.691406"/>
       <use xlink:href="#Georgia-30" x="135.644531"/>
      </g>
     </g>
    </g>
    <g id="xtick_8">
     <g id="line2d_8">
      <path d="M 643.659837 356.1 
L 643.659837 29.52 
" clip-path="url(#p32d1279b5d)" style="fill: none; stroke: #cccccc; stroke-linecap: round"/>
     </g>
     <g id="text_8">
      <!-- 27.5 -->
      <g style="fill: #262626" transform="translate(634.365305 373.159375) scale(0.1 -0.1)">
       <use xlink:href="#Georgia-32"/>
       <use xlink:href="#Georgia-37" x="55.859375"/>
       <use xlink:href="#Georgia-2e" x="106.103516"/>
       <use xlink:href="#Georgia-35" x="133.056641"/>
      </g>
     </g>
    </g>
    <g id="text_9">
     <!-- Share of speeches with any interjection (%) -->
     <g style="fill: #262626" transform="translate(301.921641 387.648594) scale(0.11 -0.11)">
      <defs>
       <path id="Georgia-53" d="M 3066 2034 
Q 3206 1878 3273 1692 
Q 3341 1506 3341 1259 
Q 3341 672 2906 290 
Q 2472 -91 1828 -91 
Q 1531 -91 1234 1 
Q 938 94 722 225 
L 588 -3 
L 338 -3 
L 294 1516 
L 547 1516 
Q 625 1234 729 1007 
Q 834 781 1006 584 
Q 1169 400 1386 290 
Q 1603 181 1891 181 
Q 2106 181 2267 237 
Q 2428 294 2528 397 
Q 2628 500 2676 639 
Q 2725 778 2725 959 
Q 2725 1225 2575 1454 
Q 2425 1684 2128 1803 
Q 1925 1884 1662 1982 
Q 1400 2081 1209 2169 
Q 834 2338 626 2611 
Q 419 2884 419 3325 
Q 419 3578 522 3797 
Q 625 4016 816 4188 
Q 997 4350 1244 4442 
Q 1491 4534 1759 4534 
Q 2066 4534 2308 4440 
Q 2550 4347 2750 4222 
L 2878 4434 
L 3128 4434 
L 3153 2963 
L 2900 2963 
Q 2831 3216 2745 3447 
Q 2659 3678 2522 3866 
Q 2388 4047 2194 4155 
Q 2000 4263 1719 4263 
Q 1422 4263 1212 4072 
Q 1003 3881 1003 3606 
Q 1003 3319 1137 3130 
Q 1272 2941 1528 2819 
Q 1756 2709 1976 2629 
Q 2197 2550 2403 2459 
Q 2591 2378 2764 2275 
Q 2938 2172 3066 2034 
z
" transform="scale(0.015625)"/>
       <path id="Georgia-68" d="M 3572 0 
L 2059 0 
L 2059 206 
Q 2131 213 2218 219 
Q 2306 225 2363 244 
Q 2450 272 2492 342 
Q 2534 413 2534 525 
L 2534 2109 
Q 2534 2438 2379 2616 
Q 2225 2794 2003 2794 
Q 1841 2794 1702 2742 
Q 1563 2691 1453 2616 
Q 1347 2538 1290 2459 
Q 1234 2381 1203 2328 
L 1203 556 
Q 1203 450 1245 381 
Q 1288 313 1375 275 
Q 1444 244 1517 228 
Q 1591 213 1678 206 
L 1678 0 
L 166 0 
L 166 206 
Q 238 213 316 220 
Q 394 228 447 244 
Q 534 272 578 342 
Q 622 413 622 525 
L 622 4113 
Q 622 4219 573 4325 
Q 525 4431 447 4484 
Q 391 4525 248 4542 
Q 106 4559 19 4566 
L 19 4766 
L 1159 4838 
L 1203 4791 
L 1203 2641 
L 1216 2641 
Q 1319 2744 1403 2823 
Q 1488 2903 1625 2991 
Q 1744 3066 1905 3116 
Q 2066 3166 2266 3166 
Q 2678 3166 2900 2905 
Q 3122 2644 3122 2153 
L 3122 550 
Q 3122 441 3161 373 
Q 3200 306 3291 269 
Q 3363 241 3420 227 
Q 3478 213 3572 206 
L 3572 0 
z
" transform="scale(0.015625)"/>
       <path id="Georgia-61" d="M 3144 56 
Q 2997 3 2886 -30 
Q 2775 -63 2634 -63 
Q 2391 -63 2245 51 
Q 2100 166 2059 384 
L 2041 384 
Q 1838 159 1605 40 
Q 1372 -78 1044 -78 
Q 697 -78 473 134 
Q 250 347 250 691 
Q 250 869 300 1009 
Q 350 1150 450 1263 
Q 528 1356 656 1429 
Q 784 1503 897 1547 
Q 1038 1600 1467 1744 
Q 1897 1888 2047 1969 
L 2047 2278 
Q 2047 2319 2030 2434 
Q 2013 2550 1956 2653 
Q 1894 2769 1780 2855 
Q 1666 2941 1456 2941 
Q 1313 2941 1189 2892 
Q 1066 2844 1016 2791 
Q 1016 2728 1045 2606 
Q 1075 2484 1075 2381 
Q 1075 2272 976 2181 
Q 878 2091 703 2091 
Q 547 2091 473 2202 
Q 400 2313 400 2450 
Q 400 2594 501 2725 
Q 603 2856 766 2959 
Q 906 3047 1106 3108 
Q 1306 3169 1497 3169 
Q 1759 3169 1954 3133 
Q 2150 3097 2309 2978 
Q 2469 2863 2551 2664 
Q 2634 2466 2634 2153 
Q 2634 1706 2625 1361 
Q 2616 1016 2616 606 
Q 2616 484 2658 412 
Q 2700 341 2788 291 
Q 2834 263 2936 259 
Q 3038 256 3144 256 
L 3144 56 
z
M 2053 1706 
Q 1788 1628 1588 1553 
Q 1388 1478 1216 1366 
Q 1059 1259 968 1114 
Q 878 969 878 769 
Q 878 509 1014 387 
Q 1150 266 1359 266 
Q 1581 266 1750 373 
Q 1919 481 2034 628 
L 2053 1706 
z
" transform="scale(0.015625)"/>
       <path id="Georgia-72" d="M 2584 2684 
Q 2584 2525 2506 2401 
Q 2428 2278 2266 2278 
Q 2091 2278 1998 2368 
Q 1906 2459 1906 2569 
Q 1906 2638 1917 2694 
Q 1928 2750 1938 2806 
Q 1791 2806 1594 2687 
Q 1397 2569 1259 2350 
L 1259 556 
Q 1259 447 1301 378 
Q 1344 309 1434 275 
Q 1513 244 1636 228 
Q 1759 213 1850 206 
L 1850 0 
L 225 0 
L 225 206 
Q 297 213 373 219 
Q 450 225 506 244 
Q 594 272 636 342 
Q 678 413 678 525 
L 678 2428 
Q 678 2525 633 2619 
Q 588 2713 506 2769 
Q 447 2806 365 2823 
Q 284 2841 191 2847 
L 191 3050 
L 1216 3119 
L 1259 3075 
L 1259 2641 
L 1275 2641 
Q 1469 2894 1706 3025 
Q 1944 3156 2141 3156 
Q 2338 3156 2461 3028 
Q 2584 2900 2584 2684 
z
" transform="scale(0.015625)"/>
       <path id="Georgia-65" d="M 2963 725 
Q 2769 356 2444 137 
Q 2119 -81 1697 -81 
Q 1325 -81 1045 50 
Q 766 181 584 406 
Q 403 631 314 931 
Q 225 1231 225 1566 
Q 225 1866 320 2155 
Q 416 2444 600 2675 
Q 778 2897 1042 3033 
Q 1306 3169 1634 3169 
Q 1972 3169 2212 3062 
Q 2453 2956 2603 2772 
Q 2747 2597 2817 2359 
Q 2888 2122 2888 1844 
L 2888 1638 
L 847 1638 
Q 847 1334 905 1087 
Q 963 841 1088 653 
Q 1209 472 1406 367 
Q 1603 263 1875 263 
Q 2153 263 2354 392 
Q 2556 522 2744 859 
L 2963 725 
z
M 2272 1900 
Q 2272 2075 2242 2275 
Q 2213 2475 2147 2609 
Q 2075 2753 1950 2843 
Q 1825 2934 1628 2934 
Q 1300 2934 1083 2661 
Q 866 2388 847 1900 
L 2272 1900 
z
" transform="scale(0.015625)"/>
       <path id="Georgia-20" transform="scale(0.015625)"/>
       <path id="Georgia-6f" d="M 3228 1572 
Q 3228 1247 3125 933 
Q 3022 619 2831 400 
Q 2616 150 2331 28 
Q 2047 -94 1694 -94 
Q 1400 -94 1134 17 
Q 869 128 663 341 
Q 459 550 339 851 
Q 219 1153 219 1528 
Q 219 2250 639 2709 
Q 1059 3169 1741 3169 
Q 2388 3169 2808 2733 
Q 3228 2297 3228 1572 
z
M 2581 1566 
Q 2581 1800 2534 2061 
Q 2488 2322 2394 2503 
Q 2294 2697 2131 2814 
Q 1969 2931 1734 2931 
Q 1494 2931 1323 2812 
Q 1153 2694 1047 2488 
Q 947 2297 906 2053 
Q 866 1809 866 1581 
Q 866 1281 914 1026 
Q 963 772 1069 572 
Q 1175 372 1336 258 
Q 1497 144 1734 144 
Q 2125 144 2353 522 
Q 2581 900 2581 1566 
z
" transform="scale(0.015625)"/>
       <path id="Georgia-66" d="M 2519 4466 
Q 2519 4325 2444 4228 
Q 2369 4131 2216 4131 
Q 2119 4131 2045 4172 
Q 1972 4213 1909 4281 
Q 1847 4350 1794 4437 
Q 1741 4525 1703 4578 
Q 1494 4569 1380 4286 
Q 1266 4003 1266 3384 
L 1266 3069 
L 2059 3069 
L 2059 2769 
L 1266 2769 
L 1266 556 
Q 1266 447 1308 378 
Q 1350 309 1441 275 
Q 1516 247 1641 230 
Q 1766 213 1856 206 
L 1856 0 
L 231 0 
L 231 206 
Q 303 213 379 219 
Q 456 225 513 244 
Q 600 272 642 342 
Q 684 413 684 525 
L 684 2769 
L 75 2769 
L 75 3069 
L 684 3069 
L 684 3266 
Q 684 3969 1048 4405 
Q 1413 4841 1959 4841 
Q 2238 4841 2378 4731 
Q 2519 4622 2519 4466 
z
" transform="scale(0.015625)"/>
       <path id="Georgia-73" d="M 2259 1509 
Q 2388 1397 2456 1250 
Q 2525 1103 2525 891 
Q 2525 463 2204 191 
Q 1884 -81 1375 -81 
Q 1106 -81 879 16 
Q 653 113 556 194 
L 494 -9 
L 259 -9 
L 228 1063 
L 444 1063 
Q 469 941 550 778 
Q 631 616 747 484 
Q 869 347 1039 253 
Q 1209 159 1422 159 
Q 1722 159 1884 295 
Q 2047 431 2047 684 
Q 2047 816 1995 911 
Q 1944 1006 1844 1078 
Q 1741 1150 1591 1208 
Q 1441 1266 1256 1322 
Q 1109 1366 929 1442 
Q 750 1519 622 1622 
Q 484 1731 396 1890 
Q 309 2050 309 2266 
Q 309 2644 590 2906 
Q 872 3169 1344 3169 
Q 1525 3169 1714 3122 
Q 1903 3075 2022 3009 
L 2094 3172 
L 2319 3172 
L 2366 2181 
L 2150 2181 
Q 2084 2513 1867 2720 
Q 1650 2928 1338 2928 
Q 1081 2928 934 2800 
Q 788 2672 788 2491 
Q 788 2350 836 2256 
Q 884 2163 981 2097 
Q 1075 2034 1217 1979 
Q 1359 1925 1569 1856 
Q 1775 1791 1958 1703 
Q 2141 1616 2259 1509 
z
" transform="scale(0.015625)"/>
       <path id="Georgia-70" d="M 3041 2716 
Q 3225 2497 3326 2208 
Q 3428 1919 3428 1547 
Q 3428 1181 3306 879 
Q 3184 578 2984 366 
Q 2775 150 2519 34 
Q 2263 -81 1975 -81 
Q 1697 -81 1519 -18 
Q 1341 44 1228 128 
L 1203 128 
L 1203 -797 
Q 1203 -909 1247 -984 
Q 1291 -1059 1381 -1094 
Q 1456 -1122 1595 -1148 
Q 1734 -1175 1825 -1178 
L 1825 -1388 
L 103 -1388 
L 103 -1178 
Q 200 -1172 290 -1162 
Q 381 -1153 453 -1131 
Q 547 -1100 584 -1022 
Q 622 -944 622 -838 
L 622 2441 
Q 622 2534 575 2621 
Q 528 2709 453 2763 
Q 397 2800 297 2820 
Q 197 2841 103 2847 
L 103 3050 
L 1153 3119 
L 1197 3081 
L 1197 2734 
L 1222 2728 
Q 1384 2916 1625 3041 
Q 1866 3166 2103 3166 
Q 2391 3166 2630 3044 
Q 2869 2922 3041 2716 
z
M 2531 500 
Q 2656 694 2715 950 
Q 2775 1206 2775 1522 
Q 2775 1753 2725 1993 
Q 2675 2234 2569 2413 
Q 2463 2594 2291 2706 
Q 2119 2819 1878 2819 
Q 1647 2819 1484 2717 
Q 1322 2616 1203 2475 
L 1203 653 
Q 1231 569 1295 478 
Q 1359 388 1438 322 
Q 1534 244 1646 195 
Q 1759 147 1922 147 
Q 2097 147 2259 239 
Q 2422 331 2531 500 
z
" transform="scale(0.015625)"/>
       <path id="Georgia-63" d="M 1650 -81 
Q 981 -81 603 362 
Q 225 806 225 1553 
Q 225 1878 326 2161 
Q 428 2444 622 2675 
Q 806 2897 1084 3033 
Q 1363 3169 1691 3169 
Q 2144 3169 2428 2951 
Q 2713 2734 2713 2359 
Q 2713 2203 2638 2083 
Q 2563 1963 2391 1963 
Q 2206 1963 2104 2056 
Q 2003 2150 2003 2266 
Q 2003 2406 2040 2554 
Q 2078 2703 2084 2772 
Q 2028 2869 1917 2901 
Q 1806 2934 1678 2934 
Q 1528 2934 1392 2870 
Q 1256 2806 1128 2634 
Q 1013 2478 941 2212 
Q 869 1947 869 1578 
Q 869 997 1126 630 
Q 1384 263 1803 263 
Q 2106 263 2311 409 
Q 2516 556 2691 850 
L 2891 719 
Q 2684 350 2346 134 
Q 2009 -81 1650 -81 
z
" transform="scale(0.015625)"/>
       <path id="Georgia-77" d="M 4816 2881 
Q 4684 2869 4532 2772 
Q 4381 2675 4313 2481 
Q 4156 2022 4017 1611 
Q 3878 1200 3706 688 
Q 3650 525 3592 337 
Q 3534 150 3488 -22 
L 3219 -22 
L 2391 2247 
L 1556 -22 
L 1300 -22 
Q 1066 672 842 1355 
Q 619 2038 447 2544 
Q 397 2691 256 2775 
Q 116 2859 -16 2875 
L -16 3081 
L 1359 3081 
L 1359 2863 
Q 1256 2859 1136 2828 
Q 1016 2797 1016 2725 
Q 1016 2713 1027 2672 
Q 1038 2631 1053 2584 
Q 1153 2256 1279 1851 
Q 1406 1447 1606 800 
L 2394 3019 
L 2694 3019 
L 3497 831 
Q 3631 1250 3764 1642 
Q 3897 2034 3997 2378 
Q 4019 2459 4039 2526 
Q 4059 2594 4059 2659 
Q 4059 2716 4009 2759 
Q 3959 2803 3888 2831 
Q 3825 2856 3751 2868 
Q 3678 2881 3644 2881 
L 3644 3081 
L 4816 3081 
L 4816 2881 
z
" transform="scale(0.015625)"/>
       <path id="Georgia-69" d="M 1722 0 
L 231 0 
L 231 206 
Q 303 213 379 219 
Q 456 225 513 244 
Q 600 272 642 342 
Q 684 413 684 525 
L 684 2428 
Q 684 2528 639 2611 
Q 594 2694 513 2750 
Q 453 2788 340 2814 
Q 228 2841 134 2847 
L 134 3050 
L 1222 3119 
L 1266 3075 
L 1266 563 
Q 1266 453 1308 381 
Q 1350 309 1441 275 
Q 1509 247 1575 230 
Q 1641 213 1722 206 
L 1722 0 
z
M 1328 4334 
Q 1328 4156 1211 4023 
Q 1094 3891 922 3891 
Q 763 3891 645 4017 
Q 528 4144 528 4306 
Q 528 4478 645 4606 
Q 763 4734 922 4734 
Q 1100 4734 1214 4614 
Q 1328 4494 1328 4334 
z
" transform="scale(0.015625)"/>
       <path id="Georgia-74" d="M 2128 134 
Q 1925 50 1744 -8 
Q 1563 -66 1300 -66 
Q 913 -66 755 129 
Q 597 325 597 681 
L 597 2769 
L 41 2769 
L 41 3069 
L 609 3069 
L 609 4028 
L 1178 4028 
L 1178 3069 
L 2063 3069 
L 2063 2769 
L 1184 2769 
L 1184 1047 
Q 1184 853 1198 723 
Q 1213 594 1266 497 
Q 1316 406 1416 359 
Q 1516 313 1684 313 
Q 1763 313 1914 327 
Q 2066 341 2128 363 
L 2128 134 
z
" transform="scale(0.015625)"/>
       <path id="Georgia-6e" d="M 3628 0 
L 2119 0 
L 2119 206 
Q 2191 213 2277 219 
Q 2363 225 2419 244 
Q 2506 272 2548 342 
Q 2591 413 2591 525 
L 2591 2109 
Q 2591 2438 2436 2616 
Q 2281 2794 2059 2794 
Q 1894 2794 1756 2742 
Q 1619 2691 1513 2616 
Q 1409 2544 1348 2461 
Q 1288 2378 1259 2328 
L 1259 556 
Q 1259 450 1303 381 
Q 1347 313 1434 275 
Q 1500 244 1576 228 
Q 1653 213 1734 206 
L 1734 0 
L 225 0 
L 225 206 
Q 297 213 373 219 
Q 450 225 506 244 
Q 594 272 636 342 
Q 678 413 678 525 
L 678 2428 
Q 678 2534 633 2623 
Q 588 2713 506 2769 
Q 447 2806 365 2823 
Q 284 2841 191 2847 
L 191 3050 
L 1216 3119 
L 1259 3075 
L 1259 2641 
L 1275 2641 
Q 1350 2716 1462 2820 
Q 1575 2925 1675 2991 
Q 1791 3066 1950 3116 
Q 2109 3166 2309 3166 
Q 2753 3166 2967 2889 
Q 3181 2613 3181 2153 
L 3181 550 
Q 3181 441 3218 373 
Q 3256 306 3347 269 
Q 3422 238 3476 225 
Q 3531 213 3628 206 
L 3628 0 
z
" transform="scale(0.015625)"/>
       <path id="Georgia-79" d="M -9 -1006 
Q -9 -850 77 -751 
Q 163 -653 291 -653 
Q 391 -653 462 -690 
Q 534 -728 591 -788 
Q 638 -834 691 -915 
Q 744 -997 775 -1050 
Q 931 -966 1148 -609 
Q 1366 -253 1463 16 
Q 1166 756 925 1340 
Q 684 1925 422 2550 
Q 363 2694 222 2773 
Q 81 2853 -59 2875 
L -59 3081 
L 1347 3081 
L 1347 2863 
Q 1253 2859 1122 2823 
Q 991 2788 991 2741 
Q 991 2722 1005 2678 
Q 1019 2634 1038 2588 
Q 1156 2278 1400 1695 
Q 1644 1113 1778 763 
Q 1919 1097 2070 1455 
Q 2222 1813 2409 2300 
Q 2431 2359 2472 2464 
Q 2513 2569 2513 2644 
Q 2513 2725 2370 2795 
Q 2228 2866 2100 2881 
L 2100 3081 
L 3244 3081 
L 3244 2888 
Q 3150 2872 2997 2780 
Q 2844 2688 2769 2519 
Q 2397 1656 2108 947 
Q 1819 238 1669 -97 
Q 1472 -534 1317 -779 
Q 1163 -1025 1016 -1166 
Q 872 -1297 755 -1342 
Q 638 -1388 513 -1388 
Q 269 -1388 130 -1272 
Q -9 -1156 -9 -1006 
z
" transform="scale(0.015625)"/>
       <path id="Georgia-6a" d="M 1347 188 
Q 1347 -156 1247 -457 
Q 1147 -759 981 -956 
Q 803 -1166 579 -1277 
Q 356 -1388 88 -1388 
Q -191 -1388 -331 -1277 
Q -472 -1166 -472 -1016 
Q -472 -881 -397 -779 
Q -322 -678 -178 -678 
Q -81 -678 -6 -718 
Q 69 -759 125 -825 
Q 175 -881 226 -964 
Q 278 -1047 325 -1125 
Q 563 -1125 664 -837 
Q 766 -550 766 84 
L 766 2403 
Q 766 2503 717 2595 
Q 669 2688 591 2744 
Q 541 2778 352 2812 
Q 163 2847 66 2856 
L 66 3050 
L 1303 3119 
L 1347 3075 
L 1347 188 
z
M 1394 4338 
Q 1394 4159 1276 4026 
Q 1159 3894 988 3894 
Q 828 3894 711 4020 
Q 594 4147 594 4309 
Q 594 4481 711 4609 
Q 828 4738 988 4738 
Q 1166 4738 1280 4617 
Q 1394 4497 1394 4338 
z
" transform="scale(0.015625)"/>
       <path id="Georgia-28" d="M 2191 -1025 
Q 1338 -919 852 -165 
Q 366 588 366 1863 
Q 366 3159 852 3917 
Q 1338 4675 2191 4788 
L 2191 4528 
Q 1591 4419 1278 3762 
Q 966 3106 966 1856 
Q 966 666 1272 5 
Q 1578 -656 2191 -769 
L 2191 -1025 
z
" transform="scale(0.015625)"/>
       <path id="Georgia-25" d="M 2463 3384 
Q 2463 2834 2166 2531 
Q 1869 2228 1400 2228 
Q 931 2228 636 2531 
Q 341 2834 341 3384 
Q 341 3903 630 4222 
Q 919 4541 1403 4541 
Q 1881 4541 2172 4222 
Q 2463 3903 2463 3384 
z
M 1934 3384 
Q 1934 3791 1800 4050 
Q 1666 4309 1403 4309 
Q 1134 4309 1001 4050 
Q 869 3791 869 3384 
Q 869 2969 1003 2714 
Q 1138 2459 1400 2459 
Q 1663 2459 1798 2714 
Q 1934 2969 1934 3384 
z
M 4891 1056 
Q 4891 506 4594 203 
Q 4297 -100 3828 -100 
Q 3359 -100 3064 203 
Q 2769 506 2769 1056 
Q 2769 1575 3058 1894 
Q 3347 2213 3831 2213 
Q 4309 2213 4600 1894 
Q 4891 1575 4891 1056 
z
M 4363 1056 
Q 4363 1463 4228 1722 
Q 4094 1981 3831 1981 
Q 3563 1981 3430 1722 
Q 3297 1463 3297 1056 
Q 3297 641 3431 386 
Q 3566 131 3828 131 
Q 4091 131 4227 386 
Q 4363 641 4363 1056 
z
M 4684 4450 
L 1000 0 
L 569 0 
L 4244 4450 
L 4684 4450 
z
" transform="scale(0.015625)"/>
       <path id="Georgia-29" d="M 2034 1863 
Q 2034 588 1548 -165 
Q 1063 -919 209 -1025 
L 209 -769 
Q 822 -656 1128 5 
Q 1434 666 1434 1856 
Q 1434 3106 1121 3762 
Q 809 4419 209 4528 
L 209 4788 
Q 1063 4675 1548 3917 
Q 2034 3159 2034 1863 
z
" transform="scale(0.015625)"/>
      </defs>
      <use xlink:href="#Georgia-53"/>
      <use xlink:href="#Georgia-68" x="56.103516"/>
      <use xlink:href="#Georgia-61" x="114.306641"/>
      <use xlink:href="#Georgia-72" x="164.697266"/>
      <use xlink:href="#Georgia-65" x="205.664062"/>
      <use xlink:href="#Georgia-20" x="254.003906"/>
      <use xlink:href="#Georgia-6f" x="278.125"/>
      <use xlink:href="#Georgia-66" x="332.03125"/>
      <use xlink:href="#Georgia-20" x="364.550781"/>
      <use xlink:href="#Georgia-73" x="388.671875"/>
      <use xlink:href="#Georgia-70" x="431.884766"/>
      <use xlink:href="#Georgia-65" x="489.013672"/>
      <use xlink:href="#Georgia-65" x="537.353516"/>
      <use xlink:href="#Georgia-63" x="585.693359"/>
      <use xlink:href="#Georgia-68" x="631.103516"/>
      <use xlink:href="#Georgia-65" x="689.306641"/>
      <use xlink:href="#Georgia-73" x="737.646484"/>
      <use xlink:href="#Georgia-20" x="780.859375"/>
      <use xlink:href="#Georgia-77" x="804.980469"/>
      <use xlink:href="#Georgia-69" x="878.710938"/>
      <use xlink:href="#Georgia-74" x="908.007812"/>
      <use xlink:href="#Georgia-68" x="942.529297"/>
      <use xlink:href="#Georgia-20" x="1000.732422"/>
      <use xlink:href="#Georgia-61" x="1024.853516"/>
      <use xlink:href="#Georgia-6e" x="1075.244141"/>
      <use xlink:href="#Georgia-79" x="1134.326172"/>
      <use xlink:href="#Georgia-20" x="1183.544922"/>
      <use xlink:href="#Georgia-69" x="1207.666016"/>
      <use xlink:href="#Georgia-6e" x="1236.962891"/>
      <use xlink:href="#Georgia-74" x="1296.044922"/>
      <use xlink:href="#Georgia-65" x="1330.566406"/>
      <use xlink:href="#Georgia-72" x="1378.90625"/>
      <use xlink:href="#Georgia-6a" x="1419.873047"/>
      <use xlink:href="#Georgia-65" x="1449.072266"/>
      <use xlink:href="#Georgia-63" x="1497.412109"/>
      <use xlink:href="#Georgia-74" x="1542.822266"/>
      <use xlink:href="#Georgia-69" x="1577.34375"/>
      <use xlink:href="#Georgia-6f" x="1606.640625"/>
      <use xlink:href="#Georgia-6e" x="1660.546875"/>
      <use xlink:href="#Georgia-20" x="1719.628906"/>
      <use xlink:href="#Georgia-28" x="1743.75"/>
      <use xlink:href="#Georgia-25" x="1781.25"/>
      <use xlink:href="#Georgia-29" x="1862.988281"/>
     </g>
    </g>
   </g>
   <g id="matplotlib.axis_2">
    <g id="ytick_1">
     <g id="line2d_9">
      <path d="M 120.26 341.255455 
L 692.64 341.255455 
" clip-path="url(#p32d1279b5d)" style="fill: none; stroke: #cccccc; stroke-linecap: round"/>
     </g>
     <g id="text_10">
      <!-- Education -->
      <g style="fill: #262626" transform="translate(65.474063 345.035142) scale(0.1 -0.1)">
       <defs>
        <path id="Georgia-45" d="M 4034 1306 
L 3950 0 
L 269 0 
L 269 222 
Q 363 228 519 248 
Q 675 269 722 291 
Q 822 338 861 413 
Q 900 488 900 603 
L 900 3791 
Q 900 3894 865 3973 
Q 831 4053 722 4103 
Q 638 4144 495 4175 
Q 353 4206 269 4213 
L 269 4434 
L 3700 4434 
L 3700 3366 
L 3466 3366 
Q 3403 3603 3195 3870 
Q 2988 4138 2800 4163 
Q 2703 4175 2568 4181 
Q 2434 4188 2263 4188 
L 1566 4188 
L 1566 2425 
L 2066 2425 
Q 2306 2425 2417 2470 
Q 2528 2516 2613 2622 
Q 2681 2713 2729 2864 
Q 2778 3016 2794 3150 
L 3028 3150 
L 3028 1416 
L 2794 1416 
Q 2781 1566 2726 1733 
Q 2672 1900 2613 1975 
Q 2516 2097 2392 2134 
Q 2269 2172 2066 2172 
L 1566 2172 
L 1566 841 
Q 1566 641 1594 525 
Q 1622 409 1703 350 
Q 1784 291 1925 273 
Q 2066 256 2325 256 
Q 2428 256 2597 256 
Q 2766 256 2881 269 
Q 3000 281 3126 314 
Q 3253 347 3306 403 
Q 3450 553 3608 858 
Q 3766 1163 3809 1306 
L 4034 1306 
z
" transform="scale(0.015625)"/>
        <path id="Georgia-64" d="M 3600 56 
L 2525 -13 
L 2478 31 
L 2478 319 
L 2453 325 
Q 2291 144 2052 28 
Q 1813 -88 1559 -88 
Q 1297 -88 1051 29 
Q 806 147 625 359 
Q 441 575 333 878 
Q 225 1181 225 1547 
Q 225 1881 340 2181 
Q 456 2481 659 2706 
Q 850 2916 1126 3041 
Q 1403 3166 1691 3166 
Q 1906 3166 2114 3111 
Q 2322 3056 2472 2972 
L 2472 4044 
Q 2472 4175 2428 4283 
Q 2384 4391 2306 4447 
Q 2219 4506 2070 4532 
Q 1922 4559 1750 4572 
L 1750 4766 
L 3009 4838 
L 3056 4791 
L 3056 634 
Q 3056 525 3098 448 
Q 3141 372 3222 319 
Q 3281 281 3393 272 
Q 3506 263 3600 259 
L 3600 56 
z
M 2472 597 
L 2472 2400 
Q 2447 2481 2390 2575 
Q 2334 2669 2250 2747 
Q 2159 2825 2037 2876 
Q 1916 2928 1753 2928 
Q 1566 2928 1408 2831 
Q 1250 2734 1128 2553 
Q 1013 2378 945 2108 
Q 878 1838 878 1509 
Q 878 1247 928 1033 
Q 978 819 1097 634 
Q 1206 459 1376 353 
Q 1547 247 1781 247 
Q 2031 247 2195 356 
Q 2359 466 2472 597 
z
" transform="scale(0.015625)"/>
        <path id="Georgia-75" d="M 3528 56 
L 2525 -13 
L 2478 31 
L 2478 422 
L 2459 422 
Q 2384 344 2290 255 
Q 2197 166 2075 94 
Q 1934 9 1803 -34 
Q 1672 -78 1431 -78 
Q 1022 -78 808 189 
Q 594 456 594 966 
L 594 2441 
Q 594 2553 551 2629 
Q 509 2706 428 2763 
Q 372 2800 287 2817 
Q 203 2834 109 2841 
L 109 3044 
L 1138 3119 
L 1184 3075 
L 1184 934 
Q 1184 600 1334 431 
Q 1484 263 1694 263 
Q 1866 263 2000 316 
Q 2134 369 2225 441 
Q 2309 506 2373 579 
Q 2438 653 2472 716 
L 2472 2463 
Q 2472 2566 2428 2645 
Q 2384 2725 2306 2781 
Q 2250 2819 2139 2826 
Q 2028 2834 1891 2841 
L 1891 3044 
L 3009 3119 
L 3056 3075 
L 3056 628 
Q 3056 522 3100 447 
Q 3144 372 3222 319 
Q 3278 284 3356 273 
Q 3434 263 3528 259 
L 3528 56 
z
" transform="scale(0.015625)"/>
       </defs>
       <use xlink:href="#Georgia-45"/>
       <use xlink:href="#Georgia-64" x="65.332031"/>
       <use xlink:href="#Georgia-75" x="122.753906"/>
       <use xlink:href="#Georgia-63" x="180.273438"/>
       <use xlink:href="#Georgia-61" x="225.683594"/>
       <use xlink:href="#Georgia-74" x="276.074219"/>
       <use xlink:href="#Georgia-69" x="310.595703"/>
       <use xlink:href="#Georgia-6f" x="339.892578"/>
       <use xlink:href="#Georgia-6e" x="393.798828"/>
      </g>
     </g>
    </g>
    <g id="ytick_2">
     <g id="line2d_10">
      <path d="M 120.26 281.877273 
L 692.64 281.877273 
" clip-path="url(#p32d1279b5d)" style="fill: none; stroke: #cccccc; stroke-linecap: round"/>
     </g>
     <g id="text_11">
      <!-- Health -->
      <g style="fill: #262626" transform="translate(80.60375 285.65696) scale(0.1 -0.1)">
       <defs>
        <path id="Georgia-48" d="M 4897 0 
L 3056 0 
L 3056 222 
Q 3131 228 3273 240 
Q 3416 253 3469 278 
Q 3563 316 3606 392 
Q 3650 469 3650 591 
L 3650 2169 
L 1566 2169 
L 1566 625 
Q 1566 516 1602 441 
Q 1638 366 1744 309 
Q 1797 281 1933 253 
Q 2069 225 2147 222 
L 2147 0 
L 306 0 
L 306 222 
Q 381 228 523 240 
Q 666 253 719 278 
Q 813 316 856 392 
Q 900 469 900 591 
L 900 3791 
Q 900 3891 859 3973 
Q 819 4056 719 4103 
Q 634 4144 514 4175 
Q 394 4206 306 4213 
L 306 4434 
L 2147 4434 
L 2147 4213 
Q 2059 4209 1932 4184 
Q 1806 4159 1744 4138 
Q 1638 4100 1602 4012 
Q 1566 3925 1566 3822 
L 1566 2447 
L 3650 2447 
L 3650 3791 
Q 3650 3891 3609 3973 
Q 3569 4056 3469 4103 
Q 3384 4144 3264 4175 
Q 3144 4206 3056 4213 
L 3056 4434 
L 4897 4434 
L 4897 4213 
Q 4809 4209 4682 4184 
Q 4556 4159 4494 4138 
Q 4388 4100 4352 4012 
Q 4316 3925 4316 3822 
L 4316 625 
Q 4316 516 4352 441 
Q 4388 366 4494 309 
Q 4547 281 4683 253 
Q 4819 225 4897 222 
L 4897 0 
z
" transform="scale(0.015625)"/>
        <path id="Georgia-6c" d="M 1669 0 
L 166 0 
L 166 206 
Q 238 213 319 220 
Q 400 228 453 244 
Q 541 272 584 342 
Q 628 413 628 525 
L 628 4094 
Q 628 4206 579 4304 
Q 531 4403 453 4459 
Q 397 4497 247 4528 
Q 97 4559 6 4566 
L 6 4766 
L 1166 4838 
L 1209 4791 
L 1209 563 
Q 1209 453 1250 383 
Q 1291 313 1381 275 
Q 1450 244 1517 228 
Q 1584 213 1669 206 
L 1669 0 
z
" transform="scale(0.015625)"/>
       </defs>
       <use xlink:href="#Georgia-48"/>
       <use xlink:href="#Georgia-65" x="81.494141"/>
       <use xlink:href="#Georgia-61" x="129.833984"/>
       <use xlink:href="#Georgia-6c" x="180.224609"/>
       <use xlink:href="#Georgia-74" x="208.837891"/>
       <use xlink:href="#Georgia-68" x="243.359375"/>
      </g>
     </g>
    </g>
    <g id="ytick_3">
     <g id="line2d_11">
      <path d="M 120.26 222.499091 
L 692.64 222.499091 
" clip-path="url(#p32d1279b5d)" style="fill: none; stroke: #cccccc; stroke-linecap: round"/>
     </g>
     <g id="text_12">
      <!-- Foreign Policy -->
      <g style="fill: #262626" transform="translate(47.363125 226.278778) scale(0.1 -0.1)">
       <defs>
        <path id="Georgia-46" d="M 3747 3325 
L 3513 3325 
Q 3447 3572 3239 3853 
Q 3031 4134 2841 4163 
Q 2744 4175 2611 4181 
Q 2478 4188 2309 4188 
L 1566 4188 
L 1566 2406 
L 2075 2406 
Q 2306 2406 2434 2454 
Q 2563 2503 2653 2603 
Q 2716 2672 2767 2817 
Q 2819 2963 2834 3128 
L 3072 3128 
L 3072 1388 
L 2834 1388 
Q 2825 1525 2770 1700 
Q 2716 1875 2653 1953 
Q 2559 2069 2417 2111 
Q 2275 2153 2075 2153 
L 1566 2153 
L 1566 625 
Q 1566 522 1606 440 
Q 1647 359 1750 309 
Q 1797 288 1953 256 
Q 2109 225 2191 222 
L 2191 0 
L 269 0 
L 269 222 
Q 363 228 519 242 
Q 675 256 722 278 
Q 816 319 858 398 
Q 900 478 900 591 
L 900 3791 
Q 900 3894 865 3973 
Q 831 4053 722 4103 
Q 638 4144 495 4175 
Q 353 4206 269 4213 
L 269 4434 
L 3747 4434 
L 3747 3325 
z
" transform="scale(0.015625)"/>
        <path id="Georgia-67" d="M 2866 319 
Q 2991 200 3062 50 
Q 3134 -100 3134 -322 
Q 3134 -544 3037 -739 
Q 2941 -934 2744 -1078 
Q 2534 -1225 2243 -1306 
Q 1953 -1388 1525 -1388 
Q 825 -1388 478 -1183 
Q 131 -978 131 -584 
Q 131 -266 381 -81 
Q 631 103 1019 119 
L 1019 163 
Q 925 191 825 233 
Q 725 275 653 331 
Q 572 397 522 486 
Q 472 575 472 706 
Q 472 872 589 1011 
Q 706 1150 944 1250 
L 944 1297 
Q 644 1438 478 1658 
Q 313 1878 313 2169 
Q 313 2606 639 2887 
Q 966 3169 1475 3169 
Q 1616 3169 1755 3141 
Q 1894 3113 2038 3069 
L 3113 3069 
L 3113 2769 
L 2388 2769 
L 2388 2750 
Q 2503 2616 2559 2453 
Q 2616 2291 2616 2134 
Q 2616 1728 2286 1447 
Q 1956 1166 1519 1166 
L 1141 1166 
Q 1069 1141 991 1075 
Q 913 1009 913 897 
Q 913 781 978 720 
Q 1044 659 1138 638 
Q 1228 613 1348 606 
Q 1469 600 1597 597 
Q 1734 594 1973 578 
Q 2213 563 2313 559 
Q 2456 553 2601 490 
Q 2747 428 2866 319 
z
M 2022 2147 
Q 2022 2513 1873 2730 
Q 1725 2947 1456 2947 
Q 1309 2947 1204 2886 
Q 1100 2825 1034 2713 
Q 972 2609 945 2464 
Q 919 2319 919 2166 
Q 919 1819 1070 1600 
Q 1222 1381 1463 1381 
Q 1731 1381 1876 1598 
Q 2022 1816 2022 2147 
z
M 2622 -438 
Q 2622 -263 2540 -150 
Q 2459 -38 2294 3 
Q 2206 16 1934 31 
Q 1663 47 1303 47 
Q 966 -19 823 -173 
Q 681 -328 681 -572 
Q 681 -681 728 -781 
Q 775 -881 891 -966 
Q 1000 -1047 1184 -1098 
Q 1369 -1150 1634 -1150 
Q 2094 -1150 2358 -973 
Q 2622 -797 2622 -438 
z
" transform="scale(0.015625)"/>
        <path id="Georgia-50" d="M 3700 3341 
Q 3700 2994 3564 2726 
Q 3428 2459 3188 2284 
Q 2950 2109 2665 2028 
Q 2381 1947 2063 1947 
L 1566 1947 
L 1566 603 
Q 1566 494 1602 411 
Q 1638 328 1750 284 
Q 1806 263 1948 244 
Q 2091 225 2209 222 
L 2209 0 
L 306 0 
L 306 222 
Q 381 228 523 243 
Q 666 259 722 284 
Q 816 325 858 403 
Q 900 481 900 603 
L 900 3803 
Q 900 3913 869 4000 
Q 838 4088 722 4131 
Q 603 4172 486 4189 
Q 369 4206 284 4213 
L 284 4434 
L 2309 4434 
Q 2928 4434 3314 4136 
Q 3700 3838 3700 3341 
z
M 2750 2584 
Q 2856 2734 2890 2895 
Q 2925 3056 2925 3184 
Q 2925 3363 2883 3547 
Q 2841 3731 2738 3869 
Q 2628 4016 2450 4097 
Q 2272 4178 2006 4178 
L 1566 4178 
L 1566 2219 
L 1884 2219 
Q 2222 2219 2433 2323 
Q 2644 2428 2750 2584 
z
" transform="scale(0.015625)"/>
       </defs>
       <use xlink:href="#Georgia-46"/>
       <use xlink:href="#Georgia-6f" x="59.912109"/>
       <use xlink:href="#Georgia-72" x="113.818359"/>
       <use xlink:href="#Georgia-65" x="154.785156"/>
       <use xlink:href="#Georgia-69" x="203.125"/>
       <use xlink:href="#Georgia-67" x="232.421875"/>
       <use xlink:href="#Georgia-6e" x="283.349609"/>
       <use xlink:href="#Georgia-20" x="342.431641"/>
       <use xlink:href="#Georgia-50" x="366.552734"/>
       <use xlink:href="#Georgia-6f" x="427.539062"/>
       <use xlink:href="#Georgia-6c" x="481.445312"/>
       <use xlink:href="#Georgia-69" x="510.058594"/>
       <use xlink:href="#Georgia-63" x="539.355469"/>
       <use xlink:href="#Georgia-79" x="584.765625"/>
      </g>
     </g>
    </g>
    <g id="ytick_4">
     <g id="line2d_12">
      <path d="M 120.26 163.120909 
L 692.64 163.120909 
" clip-path="url(#p32d1279b5d)" style="fill: none; stroke: #cccccc; stroke-linecap: round"/>
     </g>
     <g id="text_13">
      <!-- Climate/Environment -->
      <g style="fill: #262626" transform="translate(12.992812 166.900597) scale(0.1 -0.1)">
       <defs>
        <path id="Georgia-43" d="M 2259 -103 
Q 1863 -103 1498 53 
Q 1134 209 853 503 
Q 575 797 409 1220 
Q 244 1644 244 2175 
Q 244 2706 406 3139 
Q 569 3572 856 3884 
Q 1141 4194 1528 4362 
Q 1916 4531 2356 4531 
Q 2684 4531 2950 4450 
Q 3216 4369 3456 4222 
L 3584 4434 
L 3834 4434 
L 3863 2853 
L 3606 2853 
Q 3556 3084 3456 3354 
Q 3356 3625 3222 3813 
Q 3072 4025 2865 4145 
Q 2659 4266 2394 4266 
Q 2091 4266 1830 4131 
Q 1569 3997 1378 3734 
Q 1197 3481 1094 3090 
Q 991 2700 991 2219 
Q 991 1794 1098 1439 
Q 1206 1084 1406 816 
Q 1606 550 1879 400 
Q 2153 250 2491 250 
Q 2744 250 2956 329 
Q 3169 409 3325 541 
Q 3481 678 3600 853 
Q 3719 1028 3794 1234 
L 4028 1122 
Q 3759 463 3315 180 
Q 2872 -103 2259 -103 
z
" transform="scale(0.015625)"/>
        <path id="Georgia-6d" d="M 5503 0 
L 4000 0 
L 4000 206 
Q 4072 213 4145 219 
Q 4219 225 4275 244 
Q 4363 272 4405 342 
Q 4447 413 4447 525 
L 4447 2116 
Q 4447 2441 4298 2617 
Q 4150 2794 3928 2794 
Q 3775 2794 3640 2747 
Q 3506 2700 3394 2616 
Q 3303 2547 3242 2467 
Q 3181 2388 3150 2334 
L 3150 556 
Q 3150 447 3187 376 
Q 3225 306 3316 269 
Q 3388 241 3445 227 
Q 3503 213 3597 206 
L 3597 0 
L 2125 0 
L 2125 206 
Q 2197 213 2264 219 
Q 2331 225 2388 244 
Q 2475 272 2517 342 
Q 2559 413 2559 525 
L 2559 2116 
Q 2559 2441 2411 2617 
Q 2263 2794 2041 2794 
Q 1888 2794 1753 2745 
Q 1619 2697 1506 2613 
Q 1416 2544 1353 2458 
Q 1291 2372 1259 2328 
L 1259 563 
Q 1259 456 1303 384 
Q 1347 313 1434 275 
Q 1500 244 1569 228 
Q 1638 213 1722 206 
L 1722 0 
L 225 0 
L 225 206 
Q 297 213 373 219 
Q 450 225 506 244 
Q 594 272 636 342 
Q 678 413 678 525 
L 678 2441 
Q 678 2541 633 2620 
Q 588 2700 506 2756 
Q 447 2794 359 2817 
Q 272 2841 178 2847 
L 178 3050 
L 1209 3119 
L 1253 3075 
L 1253 2634 
L 1275 2634 
Q 1353 2713 1465 2819 
Q 1578 2925 1675 2991 
Q 1784 3066 1948 3116 
Q 2113 3166 2303 3166 
Q 2603 3166 2818 3005 
Q 3034 2844 3128 2616 
Q 3241 2725 3327 2808 
Q 3413 2891 3553 2984 
Q 3672 3066 3833 3116 
Q 3994 3166 4191 3166 
Q 4581 3166 4809 2909 
Q 5038 2653 5038 2122 
L 5038 556 
Q 5038 447 5075 376 
Q 5113 306 5203 269 
Q 5275 241 5345 227 
Q 5416 213 5503 206 
L 5503 0 
z
" transform="scale(0.015625)"/>
        <path id="Georgia-2f" d="M 2719 4759 
L 559 -1325 
L 153 -1325 
L 2306 4759 
L 2719 4759 
z
" transform="scale(0.015625)"/>
        <path id="Georgia-76" d="M 3269 2891 
Q 3128 2866 3001 2789 
Q 2875 2713 2784 2519 
Q 2600 2100 2403 1645 
Q 2206 1191 1994 691 
Q 1931 547 1861 350 
Q 1791 153 1731 -28 
L 1488 -28 
Q 1191 706 941 1311 
Q 691 1916 422 2550 
Q 359 2694 220 2773 
Q 81 2853 -59 2875 
L -59 3081 
L 1366 3081 
L 1366 2863 
Q 1272 2859 1131 2823 
Q 991 2788 991 2725 
Q 991 2716 1006 2677 
Q 1022 2638 1038 2588 
Q 1166 2269 1400 1697 
Q 1634 1125 1781 775 
Q 1894 1044 2064 1444 
Q 2234 1844 2431 2338 
Q 2463 2422 2491 2495 
Q 2519 2569 2519 2644 
Q 2519 2697 2467 2739 
Q 2416 2781 2344 2813 
Q 2272 2844 2203 2859 
Q 2134 2875 2091 2881 
L 2091 3081 
L 3269 3081 
L 3269 2891 
z
" transform="scale(0.015625)"/>
       </defs>
       <use xlink:href="#Georgia-43"/>
       <use xlink:href="#Georgia-6c" x="64.208984"/>
       <use xlink:href="#Georgia-69" x="92.822266"/>
       <use xlink:href="#Georgia-6d" x="122.119141"/>
       <use xlink:href="#Georgia-61" x="210.205078"/>
       <use xlink:href="#Georgia-74" x="260.595703"/>
       <use xlink:href="#Georgia-65" x="295.117188"/>
       <use xlink:href="#Georgia-2f" x="343.457031"/>
       <use xlink:href="#Georgia-45" x="390.332031"/>
       <use xlink:href="#Georgia-6e" x="455.664062"/>
       <use xlink:href="#Georgia-76" x="514.746094"/>
       <use xlink:href="#Georgia-69" x="564.404297"/>
       <use xlink:href="#Georgia-72" x="593.701172"/>
       <use xlink:href="#Georgia-6f" x="634.667969"/>
       <use xlink:href="#Georgia-6e" x="688.574219"/>
       <use xlink:href="#Georgia-6d" x="747.65625"/>
       <use xlink:href="#Georgia-65" x="835.742188"/>
       <use xlink:href="#Georgia-6e" x="884.082031"/>
       <use xlink:href="#Georgia-74" x="943.164062"/>
      </g>
     </g>
    </g>
    <g id="ytick_5">
     <g id="line2d_13">
      <path d="M 120.26 103.742727 
L 692.64 103.742727 
" clip-path="url(#p32d1279b5d)" style="fill: none; stroke: #cccccc; stroke-linecap: round"/>
     </g>
     <g id="text_14">
      <!-- Security/Defense -->
      <g style="fill: #262626" transform="translate(34.46 107.524759) scale(0.1 -0.1)">
       <defs>
        <path id="Georgia-44" d="M 4553 2191 
Q 4553 1625 4340 1209 
Q 4128 794 3788 528 
Q 3444 263 3016 131 
Q 2588 0 2131 0 
L 294 0 
L 294 222 
Q 384 222 529 239 
Q 675 256 722 278 
Q 816 319 858 398 
Q 900 478 900 591 
L 900 3791 
Q 900 3897 864 3981 
Q 828 4066 722 4116 
Q 625 4163 512 4184 
Q 400 4206 319 4213 
L 319 4434 
L 2256 4434 
Q 2656 4434 3043 4311 
Q 3431 4188 3719 3978 
Q 4109 3700 4331 3250 
Q 4553 2800 4553 2191 
z
M 3788 2194 
Q 3788 2641 3669 3002 
Q 3550 3363 3322 3631 
Q 3106 3888 2792 4034 
Q 2478 4181 2094 4181 
Q 1966 4181 1805 4176 
Q 1644 4172 1566 4169 
L 1566 759 
Q 1566 475 1731 365 
Q 1897 256 2241 256 
Q 2638 256 2934 397 
Q 3231 538 3416 788 
Q 3609 1050 3698 1395 
Q 3788 1741 3788 2194 
z
" transform="scale(0.015625)"/>
       </defs>
       <use xlink:href="#Georgia-53"/>
       <use xlink:href="#Georgia-65" x="56.103516"/>
       <use xlink:href="#Georgia-63" x="104.443359"/>
       <use xlink:href="#Georgia-75" x="149.853516"/>
       <use xlink:href="#Georgia-72" x="207.373047"/>
       <use xlink:href="#Georgia-69" x="248.339844"/>
       <use xlink:href="#Georgia-74" x="277.636719"/>
       <use xlink:href="#Georgia-79" x="312.158203"/>
       <use xlink:href="#Georgia-2f" x="361.376953"/>
       <use xlink:href="#Georgia-44" x="408.251953"/>
       <use xlink:href="#Georgia-65" x="483.154297"/>
       <use xlink:href="#Georgia-66" x="531.494141"/>
       <use xlink:href="#Georgia-65" x="564.013672"/>
       <use xlink:href="#Georgia-6e" x="612.353516"/>
       <use xlink:href="#Georgia-73" x="671.435547"/>
       <use xlink:href="#Georgia-65" x="714.648438"/>
      </g>
     </g>
    </g>
    <g id="ytick_6">
     <g id="line2d_14">
      <path d="M 120.26 44.364545 
L 692.64 44.364545 
" clip-path="url(#p32d1279b5d)" style="fill: none; stroke: #cccccc; stroke-linecap: round"/>
     </g>
     <g id="text_15">
      <!-- Economy -->
      <g style="fill: #262626" transform="translate(69.26625 48.144233) scale(0.1 -0.1)">
       <use xlink:href="#Georgia-45"/>
       <use xlink:href="#Georgia-63" x="65.332031"/>
       <use xlink:href="#Georgia-6f" x="110.742188"/>
       <use xlink:href="#Georgia-6e" x="164.648438"/>
       <use xlink:href="#Georgia-6f" x="223.730469"/>
       <use xlink:href="#Georgia-6d" x="277.636719"/>
       <use xlink:href="#Georgia-79" x="365.722656"/>
      </g>
     </g>
    </g>
   </g>
   <g id="LineCollection_1">
    <path d="M 211.320627 341.255455 
L 343.717081 341.255455 
" clip-path="url(#p32d1279b5d)" style="fill: none; stroke: #b8b8b8; stroke-width: 2"/>
    <path d="M 173.174591 281.877273 
L 328.388766 281.877273 
" clip-path="url(#p32d1279b5d)" style="fill: none; stroke: #b8b8b8; stroke-width: 2"/>
    <path d="M 221.931833 222.499091 
L 392.656464 222.499091 
" clip-path="url(#p32d1279b5d)" style="fill: none; stroke: #b8b8b8; stroke-width: 2"/>
    <path d="M 292.884638 163.120909 
L 477.715977 163.120909 
" clip-path="url(#p32d1279b5d)" style="fill: none; stroke: #b8b8b8; stroke-width: 2"/>
    <path d="M 146.277273 103.742727 
L 337.060191 103.742727 
" clip-path="url(#p32d1279b5d)" style="fill: none; stroke: #b8b8b8; stroke-width: 2"/>
    <path d="M 310.165409 44.364545 
L 666.622727 44.364545 
" clip-path="url(#p32d1279b5d)" style="fill: none; stroke: #b8b8b8; stroke-width: 2"/>
   </g>
   <g id="patch_3">
    <path d="M 120.26 356.1 
L 120.26 29.52 
" style="fill: none; stroke: #cccccc; stroke-width: 1.25; stroke-linejoin: miter; stroke-linecap: square"/>
   </g>
   <g id="patch_4">
    <path d="M 120.26 356.1 
L 692.64 356.1 
" style="fill: none; stroke: #cccccc; stroke-width: 1.25; stroke-linejoin: miter; stroke-linecap: square"/>
   </g>
   <g id="PathCollection_1">
    <defs>
     <path id="m7db63357a4" d="M 0 3.605551 
C 0.956203 3.605551 1.873372 3.225648 2.54951 2.54951 
C 3.225648 1.873372 3.605551 0.956203 3.605551 0 
C 3.605551 -0.956203 3.225648 -1.873372 2.54951 -2.54951 
C 1.873372 -3.225648 0.956203 -3.605551 0 -3.605551 
C -0.956203 -3.605551 -1.873372 -3.225648 -2.54951 -2.54951 
C -3.225648 -1.873372 -3.605551 -0.956203 -3.605551 0 
C -3.605551 0.956203 -3.225648 1.873372 -2.54951 2.54951 
C -1.873372 3.225648 -0.956203 3.605551 0 3.605551 
z
" style="stroke: #c44e52"/>
    </defs>
    <g clip-path="url(#p32d1279b5d)">
     <use xlink:href="#m7db63357a4" x="211.320627" y="341.255455" style="fill: #c44e52; stroke: #c44e52"/>
     <use xlink:href="#m7db63357a4" x="173.174591" y="281.877273" style="fill: #c44e52; stroke: #c44e52"/>
     <use xlink:href="#m7db63357a4" x="221.931833" y="222.499091" style="fill: #c44e52; stroke: #c44e52"/>
     <use xlink:href="#m7db63357a4" x="292.884638" y="163.120909" style="fill: #c44e52; stroke: #c44e52"/>
     <use xlink:href="#m7db63357a4" x="146.277273" y="103.742727" style="fill: #c44e52; stroke: #c44e52"/>
     <use xlink:href="#m7db63357a4" x="310.165409" y="44.364545" style="fill: #c44e52; stroke: #c44e52"/>
    </g>
   </g>
   <g id="PathCollection_2">
    <defs>
     <path id="m44f00c2c08" d="M 0 3.605551 
C 0.956203 3.605551 1.873372 3.225648 2.54951 2.54951 
C 3.225648 1.873372 3.605551 0.956203 3.605551 0 
C 3.605551 -0.956203 3.225648 -1.873372 2.54951 -2.54951 
C 1.873372 -3.225648 0.956203 -3.605551 0 -3.605551 
C -0.956203 -3.605551 -1.873372 -3.225648 -2.54951 -2.54951 
C -3.225648 -1.873372 -3.605551 -0.956203 -3.605551 0 
C -3.605551 0.956203 -3.225648 1.873372 -2.54951 2.54951 
C -1.873372 3.225648 -0.956203 3.605551 0 3.605551 
z
" style="stroke: #4c72b0"/>
    </defs>
    <g clip-path="url(#p32d1279b5d)">
     <use xlink:href="#m44f00c2c08" x="343.717081" y="341.255455" style="fill: #4c72b0; stroke: #4c72b0"/>
     <use xlink:href="#m44f00c2c08" x="328.388766" y="281.877273" style="fill: #4c72b0; stroke: #4c72b0"/>
     <use xlink:href="#m44f00c2c08" x="392.656464" y="222.499091" style="fill: #4c72b0; stroke: #4c72b0"/>
     <use xlink:href="#m44f00c2c08" x="477.715977" y="163.120909" style="fill: #4c72b0; stroke: #4c72b0"/>
     <use xlink:href="#m44f00c2c08" x="337.060191" y="103.742727" style="fill: #4c72b0; stroke: #4c72b0"/>
     <use xlink:href="#m44f00c2c08" x="666.622727" y="44.364545" style="fill: #4c72b0; stroke: #4c72b0"/>
    </g>
   </g>
   <g id="text_16">
    <g id="patch_5">
     <path d="M 131.7076 47.056913 
L 256.613538 47.056913 
Q 258.863538 47.056913 258.863538 44.806913 
L 258.863538 36.0516 
Q 258.863538 33.8016 256.613538 33.8016 
L 131.7076 33.8016 
Q 129.4576 33.8016 129.4576 36.0516 
L 129.4576 44.806913 
Q 129.4576 47.056913 131.7076 47.056913 
z
" style="fill: #f4efe4; stroke: #cfc6b5; stroke-linejoin: miter"/>
    </g>
    <!-- Largest gap: Economy (12.1 pp) -->
    <g style="fill: #262626" transform="translate(131.7076 42.855038) scale(0.09 -0.09)">
     <defs>
      <path id="Georgia-4c" d="M 3866 1319 
L 3772 0 
L 306 0 
L 306 222 
Q 381 228 523 243 
Q 666 259 722 284 
Q 816 325 858 403 
Q 900 481 900 603 
L 900 3778 
Q 900 3884 864 3965 
Q 828 4047 722 4097 
Q 650 4134 520 4170 
Q 391 4206 306 4213 
L 306 4434 
L 2178 4434 
L 2178 4213 
Q 2091 4209 1952 4181 
Q 1813 4153 1750 4131 
Q 1644 4094 1605 4003 
Q 1566 3913 1566 3809 
L 1566 831 
Q 1566 625 1586 511 
Q 1606 397 1681 334 
Q 1753 278 1895 261 
Q 2038 244 2294 244 
Q 2409 244 2534 250 
Q 2659 256 2772 275 
Q 2881 294 2973 326 
Q 3066 359 3109 409 
Q 3238 553 3408 845 
Q 3578 1138 3644 1319 
L 3866 1319 
z
" transform="scale(0.015625)"/>
      <path id="Georgia-3a" d="M 1428 2666 
Q 1428 2491 1301 2366 
Q 1175 2241 1000 2241 
Q 825 2241 698 2366 
Q 572 2491 572 2666 
Q 572 2841 697 2967 
Q 822 3094 1000 3094 
Q 1178 3094 1303 2967 
Q 1428 2841 1428 2666 
z
M 1428 359 
Q 1428 184 1301 60 
Q 1175 -63 1000 -63 
Q 825 -63 698 60 
Q 572 184 572 359 
Q 572 534 698 661 
Q 825 788 1000 788 
Q 1175 788 1301 661 
Q 1428 534 1428 359 
z
" transform="scale(0.015625)"/>
     </defs>
     <use xlink:href="#Georgia-4c"/>
     <use xlink:href="#Georgia-61" x="60.351562"/>
     <use xlink:href="#Georgia-72" x="110.742188"/>
     <use xlink:href="#Georgia-67" x="151.708984"/>
     <use xlink:href="#Georgia-65" x="202.636719"/>
     <use xlink:href="#Georgia-73" x="250.976562"/>
     <use xlink:href="#Georgia-74" x="294.189453"/>
     <use xlink:href="#Georgia-20" x="328.710938"/>
     <use xlink:href="#Georgia-67" x="352.832031"/>
     <use xlink:href="#Georgia-61" x="403.759766"/>
     <use xlink:href="#Georgia-70" x="454.150391"/>
     <use xlink:href="#Georgia-3a" x="511.279297"/>
     <use xlink:href="#Georgia-20" x="542.529297"/>
     <use xlink:href="#Georgia-45" x="566.650391"/>
     <use xlink:href="#Georgia-63" x="631.982422"/>
     <use xlink:href="#Georgia-6f" x="677.392578"/>
     <use xlink:href="#Georgia-6e" x="731.298828"/>
     <use xlink:href="#Georgia-6f" x="790.380859"/>
     <use xlink:href="#Georgia-6d" x="844.287109"/>
     <use xlink:href="#Georgia-79" x="932.373047"/>
     <use xlink:href="#Georgia-20" x="981.591797"/>
     <use xlink:href="#Georgia-28" x="1005.712891"/>
     <use xlink:href="#Georgia-31" x="1043.212891"/>
     <use xlink:href="#Georgia-32" x="1086.181641"/>
     <use xlink:href="#Georgia-2e" x="1142.041016"/>
     <use xlink:href="#Georgia-31" x="1168.994141"/>
     <use xlink:href="#Georgia-20" x="1211.962891"/>
     <use xlink:href="#Georgia-70" x="1236.083984"/>
     <use xlink:href="#Georgia-70" x="1293.212891"/>
     <use xlink:href="#Georgia-29" x="1350.341797"/>
    </g>
   </g>
   <g id="text_17">
    <g id="patch_6">
     <path d="M 406.45 332.2236 
L 539.980469 332.2236 
Q 542.230469 332.2236 542.230469 329.9736 
L 542.230469 321.218288 
Q 542.230469 318.968288 539.980469 318.968288 
L 406.45 318.968288 
Q 404.2 318.968288 404.2 321.218288 
L 404.2 329.9736 
Q 404.2 332.2236 406.45 332.2236 
z
" style="fill: #f4efe4; stroke: #cfc6b5; stroke-linejoin: miter"/>
    </g>
    <!-- Closest parity: Education (4.5 pp) -->
    <g style="fill: #262626" transform="translate(406.45 328.021725) scale(0.09 -0.09)">
     <defs>
      <path id="Georgia-34" d="M 3388 281 
L 2753 281 
L 2753 -1141 
L 2153 -1141 
L 2153 281 
L 153 281 
L 153 763 
L 2344 3434 
L 2753 3434 
L 2753 691 
L 3388 691 
L 3388 281 
z
M 2153 691 
L 2153 2738 
L 466 691 
L 2153 691 
z
" transform="scale(0.015625)"/>
     </defs>
     <use xlink:href="#Georgia-43"/>
     <use xlink:href="#Georgia-6c" x="64.208984"/>
     <use xlink:href="#Georgia-6f" x="92.822266"/>
     <use xlink:href="#Georgia-73" x="146.728516"/>
     <use xlink:href="#Georgia-65" x="189.941406"/>
     <use xlink:href="#Georgia-73" x="238.28125"/>
     <use xlink:href="#Georgia-74" x="281.494141"/>
     <use xlink:href="#Georgia-20" x="316.015625"/>
     <use xlink:href="#Georgia-70" x="340.136719"/>
     <use xlink:href="#Georgia-61" x="397.265625"/>
     <use xlink:href="#Georgia-72" x="447.65625"/>
     <use xlink:href="#Georgia-69" x="488.623047"/>
     <use xlink:href="#Georgia-74" x="517.919922"/>
     <use xlink:href="#Georgia-79" x="552.441406"/>
     <use xlink:href="#Georgia-3a" x="601.660156"/>
     <use xlink:href="#Georgia-20" x="632.910156"/>
     <use xlink:href="#Georgia-45" x="657.03125"/>
     <use xlink:href="#Georgia-64" x="722.363281"/>
     <use xlink:href="#Georgia-75" x="779.785156"/>
     <use xlink:href="#Georgia-63" x="837.304688"/>
     <use xlink:href="#Georgia-61" x="882.714844"/>
     <use xlink:href="#Georgia-74" x="933.105469"/>
     <use xlink:href="#Georgia-69" x="967.626953"/>
     <use xlink:href="#Georgia-6f" x="996.923828"/>
     <use xlink:href="#Georgia-6e" x="1050.830078"/>
     <use xlink:href="#Georgia-20" x="1109.912109"/>
     <use xlink:href="#Georgia-28" x="1134.033203"/>
     <use xlink:href="#Georgia-34" x="1171.533203"/>
     <use xlink:href="#Georgia-2e" x="1228.027344"/>
     <use xlink:href="#Georgia-35" x="1254.980469"/>
     <use xlink:href="#Georgia-20" x="1307.8125"/>
     <use xlink:href="#Georgia-70" x="1331.933594"/>
     <use xlink:href="#Georgia-70" x="1389.0625"/>
     <use xlink:href="#Georgia-29" x="1446.191406"/>
    </g>
   </g>
   <g id="text_18">
    <!-- Interruption Exposure by Policy Topic and Speaker Gender -->
    <g style="fill: #262626" transform="translate(223.841875 23.52) scale(0.14 -0.14)">
     <defs>
      <path id="Georgia-49" d="M 2244 0 
L 247 0 
L 247 222 
Q 331 228 490 240 
Q 650 253 716 278 
Q 819 319 866 389 
Q 913 459 913 584 
L 913 3797 
Q 913 3906 878 3979 
Q 844 4053 716 4103 
Q 622 4141 480 4173 
Q 338 4206 247 4213 
L 247 4434 
L 2244 4434 
L 2244 4213 
Q 2147 4209 2012 4189 
Q 1878 4169 1778 4138 
Q 1659 4100 1618 4015 
Q 1578 3931 1578 3828 
L 1578 619 
Q 1578 516 1623 436 
Q 1669 356 1778 309 
Q 1844 284 1992 254 
Q 2141 225 2244 222 
L 2244 0 
z
" transform="scale(0.015625)"/>
      <path id="Georgia-78" d="M 3194 0 
L 1781 0 
L 1781 206 
Q 1922 222 2020 237 
Q 2119 253 2119 319 
Q 2119 347 2087 406 
Q 2056 466 2025 516 
Q 1947 638 1811 842 
Q 1675 1047 1478 1331 
Q 1316 1128 1178 936 
Q 1041 744 891 528 
Q 869 497 845 450 
Q 822 403 822 375 
Q 822 306 911 261 
Q 1000 216 1178 200 
L 1178 0 
L 38 0 
L 38 194 
Q 250 256 379 345 
Q 509 434 619 566 
Q 716 691 889 909 
Q 1063 1128 1338 1503 
Q 1178 1731 948 2061 
Q 719 2391 569 2609 
Q 488 2728 383 2801 
Q 278 2875 88 2875 
L 88 3081 
L 1428 3081 
L 1428 2875 
Q 1328 2875 1231 2862 
Q 1134 2850 1134 2806 
Q 1134 2778 1153 2743 
Q 1172 2709 1200 2669 
Q 1269 2563 1414 2341 
Q 1559 2119 1728 1872 
Q 1838 2022 1983 2222 
Q 2128 2422 2250 2603 
Q 2263 2625 2275 2658 
Q 2288 2691 2288 2722 
Q 2288 2788 2180 2827 
Q 2072 2866 1975 2881 
L 1975 3081 
L 3113 3081 
L 3113 2888 
Q 2872 2825 2737 2739 
Q 2603 2653 2509 2541 
Q 2406 2413 2264 2225 
Q 2122 2038 1866 1700 
Q 2150 1300 2328 1044 
Q 2506 788 2688 516 
Q 2778 378 2889 298 
Q 3000 219 3194 206 
L 3194 0 
z
" transform="scale(0.015625)"/>
      <path id="Georgia-62" d="M 3353 1544 
Q 3353 850 2915 378 
Q 2478 -94 1900 -94 
Q 1647 -94 1401 -15 
Q 1156 63 941 194 
L 709 -166 
L 516 -122 
Q 531 109 537 434 
Q 544 759 544 1063 
L 544 4113 
Q 544 4219 495 4325 
Q 447 4431 372 4478 
Q 313 4519 173 4539 
Q 34 4559 -50 4566 
L -50 4766 
L 1081 4838 
L 1125 4791 
L 1125 2759 
L 1147 2753 
Q 1341 2959 1570 3062 
Q 1800 3166 2022 3166 
Q 2591 3166 2972 2716 
Q 3353 2266 3353 1544 
z
M 2700 1522 
Q 2700 1753 2650 1993 
Q 2600 2234 2494 2413 
Q 2388 2594 2216 2706 
Q 2044 2819 1803 2819 
Q 1584 2819 1420 2733 
Q 1256 2647 1125 2500 
L 1125 706 
Q 1144 631 1198 531 
Q 1253 431 1347 341 
Q 1441 253 1559 198 
Q 1678 144 1850 144 
Q 2231 144 2465 512 
Q 2700 881 2700 1522 
z
" transform="scale(0.015625)"/>
      <path id="Georgia-54" d="M 3909 3231 
L 3694 3231 
Q 3666 3344 3592 3498 
Q 3519 3653 3428 3791 
Q 3334 3934 3223 4042 
Q 3113 4150 3009 4166 
Q 2913 4178 2766 4184 
Q 2619 4191 2494 4191 
L 2313 4191 
L 2313 644 
Q 2313 541 2356 455 
Q 2400 369 2509 322 
Q 2566 300 2745 262 
Q 2925 225 3025 222 
L 3025 0 
L 931 0 
L 931 222 
Q 1019 228 1198 247 
Q 1378 266 1447 294 
Q 1550 334 1598 411 
Q 1647 488 1647 616 
L 1647 4191 
L 1466 4191 
Q 1369 4191 1225 4186 
Q 1081 4181 950 4166 
Q 847 4153 736 4042 
Q 625 3931 531 3791 
Q 438 3650 366 3492 
Q 294 3334 266 3231 
L 47 3231 
L 47 4434 
L 3909 4434 
L 3909 3231 
z
" transform="scale(0.015625)"/>
      <path id="Georgia-6b" d="M 3491 0 
L 2559 0 
Q 2316 353 2037 756 
Q 1759 1159 1459 1541 
L 1203 1300 
L 1203 569 
Q 1203 456 1243 382 
Q 1284 309 1375 275 
Q 1450 244 1519 228 
Q 1588 213 1678 206 
L 1678 0 
L 166 0 
L 166 206 
Q 238 213 316 220 
Q 394 228 447 244 
Q 534 272 578 342 
Q 622 413 622 525 
L 622 4106 
Q 622 4222 573 4323 
Q 525 4425 447 4478 
Q 381 4528 242 4543 
Q 103 4559 19 4566 
L 19 4766 
L 1159 4838 
L 1203 4791 
L 1203 1531 
Q 1447 1775 1730 2054 
Q 2013 2334 2206 2553 
Q 2231 2581 2261 2626 
Q 2291 2672 2291 2700 
Q 2291 2784 2155 2825 
Q 2019 2866 1894 2881 
L 1894 3081 
L 3250 3081 
L 3250 2888 
Q 2988 2809 2786 2692 
Q 2584 2575 2478 2481 
Q 2403 2419 2265 2278 
Q 2128 2138 1881 1909 
Q 2138 1594 2458 1153 
Q 2778 713 2925 516 
Q 3063 331 3172 275 
Q 3281 219 3491 206 
L 3491 0 
z
" transform="scale(0.015625)"/>
      <path id="Georgia-47" d="M 4597 1772 
Q 4522 1763 4395 1742 
Q 4269 1722 4191 1684 
Q 4097 1638 4058 1552 
Q 4019 1466 4019 1350 
L 4019 1006 
Q 4019 631 4023 500 
Q 4028 369 4034 284 
Q 3619 97 3206 -3 
Q 2794 -103 2397 -103 
Q 1972 -103 1578 56 
Q 1184 216 891 509 
Q 594 806 419 1231 
Q 244 1656 244 2181 
Q 244 2688 411 3120 
Q 578 3553 884 3872 
Q 1181 4184 1592 4357 
Q 2003 4531 2472 4531 
Q 2847 4531 3125 4440 
Q 3403 4350 3616 4222 
L 3744 4434 
L 3994 4434 
L 4022 2884 
L 3766 2884 
Q 3700 3141 3603 3389 
Q 3506 3638 3353 3834 
Q 3200 4031 2979 4148 
Q 2759 4266 2453 4266 
Q 2119 4266 1856 4130 
Q 1594 3994 1400 3725 
Q 1209 3466 1106 3078 
Q 1003 2691 1003 2213 
Q 1003 1791 1104 1417 
Q 1206 1044 1400 772 
Q 1594 494 1884 334 
Q 2175 175 2544 175 
Q 2819 175 3045 259 
Q 3272 344 3366 438 
Q 3391 600 3392 765 
Q 3394 931 3394 1047 
L 3394 1291 
Q 3394 1422 3358 1523 
Q 3322 1625 3209 1672 
Q 3106 1719 2929 1742 
Q 2753 1766 2653 1772 
L 2653 2000 
L 4597 2000 
L 4597 1772 
z
" transform="scale(0.015625)"/>
     </defs>
     <use xlink:href="#Georgia-49"/>
     <use xlink:href="#Georgia-6e" x="38.964844"/>
     <use xlink:href="#Georgia-74" x="98.046875"/>
     <use xlink:href="#Georgia-65" x="132.568359"/>
     <use xlink:href="#Georgia-72" x="180.908203"/>
     <use xlink:href="#Georgia-72" x="221.875"/>
     <use xlink:href="#Georgia-75" x="262.841797"/>
     <use xlink:href="#Georgia-70" x="320.361328"/>
     <use xlink:href="#Georgia-74" x="377.490234"/>
     <use xlink:href="#Georgia-69" x="412.011719"/>
     <use xlink:href="#Georgia-6f" x="441.308594"/>
     <use xlink:href="#Georgia-6e" x="495.214844"/>
     <use xlink:href="#Georgia-20" x="554.296875"/>
     <use xlink:href="#Georgia-45" x="578.417969"/>
     <use xlink:href="#Georgia-78" x="643.75"/>
     <use xlink:href="#Georgia-70" x="694.238281"/>
     <use xlink:href="#Georgia-6f" x="751.367188"/>
     <use xlink:href="#Georgia-73" x="805.273438"/>
     <use xlink:href="#Georgia-75" x="848.486328"/>
     <use xlink:href="#Georgia-72" x="906.005859"/>
     <use xlink:href="#Georgia-65" x="946.972656"/>
     <use xlink:href="#Georgia-20" x="995.3125"/>
     <use xlink:href="#Georgia-62" x="1019.433594"/>
     <use xlink:href="#Georgia-79" x="1075.439453"/>
     <use xlink:href="#Georgia-20" x="1124.658203"/>
     <use xlink:href="#Georgia-50" x="1148.779297"/>
     <use xlink:href="#Georgia-6f" x="1209.765625"/>
     <use xlink:href="#Georgia-6c" x="1263.671875"/>
     <use xlink:href="#Georgia-69" x="1292.285156"/>
     <use xlink:href="#Georgia-63" x="1321.582031"/>
     <use xlink:href="#Georgia-79" x="1366.992188"/>
     <use xlink:href="#Georgia-20" x="1416.210938"/>
     <use xlink:href="#Georgia-54" x="1440.332031"/>
     <use xlink:href="#Georgia-6f" x="1502.197266"/>
     <use xlink:href="#Georgia-70" x="1556.103516"/>
     <use xlink:href="#Georgia-69" x="1613.232422"/>
     <use xlink:href="#Georgia-63" x="1642.529297"/>
     <use xlink:href="#Georgia-20" x="1687.939453"/>
     <use xlink:href="#Georgia-61" x="1712.060547"/>
     <use xlink:href="#Georgia-6e" x="1762.451172"/>
     <use xlink:href="#Georgia-64" x="1821.533203"/>
     <use xlink:href="#Georgia-20" x="1878.955078"/>
     <use xlink:href="#Georgia-53" x="1903.076172"/>
     <use xlink:href="#Georgia-70" x="1959.179688"/>
     <use xlink:href="#Georgia-65" x="2016.308594"/>
     <use xlink:href="#Georgia-61" x="2064.648438"/>
     <use xlink:href="#Georgia-6b" x="2115.039062"/>
     <use xlink:href="#Georgia-65" x="2168.603516"/>
     <use xlink:href="#Georgia-72" x="2216.943359"/>
     <use xlink:href="#Georgia-20" x="2257.910156"/>
     <use xlink:href="#Georgia-47" x="2282.03125"/>
     <use xlink:href="#Georgia-65" x="2354.541016"/>
     <use xlink:href="#Georgia-6e" x="2402.880859"/>
     <use xlink:href="#Georgia-64" x="2461.962891"/>
     <use xlink:href="#Georgia-65" x="2519.384766"/>
     <use xlink:href="#Georgia-72" x="2567.724609"/>
    </g>
   </g>
   <g id="legend_1">
    <g id="PathCollection_3">
     <g>
      <use xlink:href="#m7db63357a4" x="582.311719" y="324.725938" style="fill: #c44e52; stroke: #c44e52"/>
     </g>
    </g>
    <g id="text_19">
     <!-- Female speakers -->
     <g style="fill: #262626" transform="translate(602.111719 327.613438) scale(0.11 -0.11)">
      <use xlink:href="#Georgia-46"/>
      <use xlink:href="#Georgia-65" x="59.912109"/>
      <use xlink:href="#Georgia-6d" x="108.251953"/>
      <use xlink:href="#Georgia-61" x="196.337891"/>
      <use xlink:href="#Georgia-6c" x="246.728516"/>
      <use xlink:href="#Georgia-65" x="275.341797"/>
      <use xlink:href="#Georgia-20" x="323.681641"/>
      <use xlink:href="#Georgia-73" x="347.802734"/>
      <use xlink:href="#Georgia-70" x="391.015625"/>
      <use xlink:href="#Georgia-65" x="448.144531"/>
      <use xlink:href="#Georgia-61" x="496.484375"/>
      <use xlink:href="#Georgia-6b" x="546.875"/>
      <use xlink:href="#Georgia-65" x="600.439453"/>
      <use xlink:href="#Georgia-72" x="648.779297"/>
      <use xlink:href="#Georgia-73" x="689.746094"/>
     </g>
    </g>
    <g id="PathCollection_4">
     <g>
      <use xlink:href="#m44f00c2c08" x="582.311719" y="340.926875" style="fill: #4c72b0; stroke: #4c72b0"/>
     </g>
    </g>
    <g id="text_20">
     <!-- Male speakers -->
     <g style="fill: #262626" transform="translate(602.111719 343.814375) scale(0.11 -0.11)">
      <defs>
       <path id="Georgia-4d" d="M 5644 0 
L 3684 0 
L 3684 222 
Q 3791 225 3958 244 
Q 4125 263 4188 297 
Q 4284 356 4329 432 
Q 4375 509 4375 625 
L 4375 3850 
L 4328 3850 
L 2816 72 
L 2659 72 
L 1219 3928 
L 1178 3928 
L 1178 1281 
Q 1178 897 1226 697 
Q 1275 497 1375 409 
Q 1444 344 1659 284 
Q 1875 225 1941 222 
L 1941 0 
L 150 0 
L 150 222 
Q 291 234 445 268 
Q 600 303 684 372 
Q 794 459 834 640 
Q 875 822 875 1247 
L 875 3516 
Q 875 3713 828 3838 
Q 781 3963 694 4041 
Q 597 4125 456 4165 
Q 316 4206 178 4213 
L 178 4434 
L 1691 4434 
L 2959 1109 
L 4044 3891 
Q 4103 4044 4145 4211 
Q 4188 4378 4191 4434 
L 5638 4434 
L 5638 4213 
Q 5550 4209 5414 4184 
Q 5278 4159 5216 4138 
Q 5109 4100 5071 4012 
Q 5034 3925 5034 3822 
L 5034 625 
Q 5034 516 5071 441 
Q 5109 366 5216 309 
Q 5272 278 5415 251 
Q 5559 225 5644 222 
L 5644 0 
z
" transform="scale(0.015625)"/>
      </defs>
      <use xlink:href="#Georgia-4d"/>
      <use xlink:href="#Georgia-61" x="92.724609"/>
      <use xlink:href="#Georgia-6c" x="143.115234"/>
      <use xlink:href="#Georgia-65" x="171.728516"/>
      <use xlink:href="#Georgia-20" x="220.068359"/>
      <use xlink:href="#Georgia-73" x="244.189453"/>
      <use xlink:href="#Georgia-70" x="287.402344"/>
      <use xlink:href="#Georgia-65" x="344.53125"/>
      <use xlink:href="#Georgia-61" x="392.871094"/>
      <use xlink:href="#Georgia-6b" x="443.261719"/>
      <use xlink:href="#Georgia-65" x="496.826172"/>
      <use xlink:href="#Georgia-72" x="545.166016"/>
      <use xlink:href="#Georgia-73" x="586.132812"/>
     </g>
    </g>
   </g>
  </g>
 </g>
 <defs>
  <clipPath id="p32d1279b5d">
   <rect x="120.26" y="29.52" width="572.38" height="326.58"/>
  </clipPath>
 </defs>
</svg>
